<?xml version="1.0" standalone="no"?>
<!DOCTYPE svg PUBLIC "-//W3C//DTD SVG 20010904//EN"
 "http://www.w3.org/TR/2001/REC-SVG-20010904/DTD/svg10.dtd">
<svg version="1.0" xmlns="http://www.w3.org/2000/svg"
 width="200px" height="300px" viewBox="0 0 213.000000 320.000000"
 preserveAspectRatio="xMidYMid meet">

<g transform="translate(0.000000,320.000000) scale(0.100000,-0.100000)"
fill="#fff" stroke="none">
<path d="M979 3065 c-3 -2 -30 -6 -60 -8 -42 -3 -75 -14 -130 -44 -41 -23
-117 -57 -169 -77 -138 -53 -172 -72 -222 -124 -42 -44 -69 -98 -82 -167 -9
-43 11 -135 34 -160 26 -28 25 -39 -1 -25 -20 11 -20 10 -13 -62 3 -40 8 -75
10 -77 2 -2 -3 -9 -11 -15 -13 -10 -38 -152 -29 -168 2 -3 21 2 42 12 159 76
215 101 225 97 13 -4 -82 -60 -215 -128 -113 -57 -180 -105 -176 -127 4 -21
44 -31 82 -20 31 8 56 -4 56 -27 0 -6 -18 -17 -40 -24 -58 -17 -68 -43 -47
-129 31 -132 60 -222 72 -222 7 0 10 -11 7 -29 -3 -23 3 -34 32 -57 40 -32 51
-60 61 -149 4 -33 11 -79 17 -103 10 -42 27 -57 29 -24 1 9 7 -5 14 -33 14
-58 52 -154 67 -172 5 -7 8 -18 6 -25 -3 -7 -19 13 -37 44 -18 32 -34 58 -35
58 -1 0 1 -33 5 -72 4 -40 3 -153 -2 -252 -8 -168 -17 -215 -40 -200 -17 10
-9 -21 18 -71 19 -36 21 -46 9 -36 -36 30 -60 93 -60 161 -1 103 8 163 24 168
13 5 13 3 0 -13 -9 -11 -10 -16 -2 -11 20 12 24 -17 7 -63 -19 -54 -20 -124
-2 -119 13 5 35 213 24 225 -4 3 -29 -4 -56 -16 -27 -11 -60 -21 -73 -21 -28
0 -88 -29 -150 -72 -25 -18 -74 -48 -107 -67 l-61 -34 0 -294 0 -293 1065 0
1065 0 0 278 0 277 -59 32 c-42 23 -61 29 -64 20 -4 -9 -7 -9 -18 1 -22 20
-28 14 -23 -26 l5 -37 -58 63 c-32 34 -63 62 -69 62 -5 0 -25 16 -44 35 -58
60 -150 88 -150 46 0 -13 23 -35 69 -65 84 -56 105 -93 99 -175 -4 -64 -33
-129 -78 -181 l-31 -35 31 50 c37 60 50 104 50 171 0 60 -22 98 -87 152 l-43
35 0 -29 c0 -16 4 -44 9 -62 9 -31 9 -32 -21 -32 -25 0 -29 3 -23 18 9 20 9
21 0 122 -8 84 10 307 26 326 6 7 9 21 7 31 -2 14 -8 10 -24 -17 -37 -63 -164
-191 -164 -166 0 3 24 32 54 66 87 98 161 260 180 395 11 74 34 120 69 136 46
21 60 48 42 83 -13 25 -13 27 0 22 15 -5 35 46 35 90 0 12 14 54 31 94 30 72
36 125 6 60 l-17 -35 6 52 c5 46 3 53 -16 63 -12 6 -33 9 -46 6 -30 -8 -31 7
-4 42 13 16 17 28 10 32 -6 4 -8 14 -4 23 18 48 -38 100 -217 202 -57 33 -60
36 -29 31 42 -7 136 -52 209 -101 l54 -36 -6 184 c-6 172 -8 189 -37 271 -17
49 -42 111 -56 140 l-24 51 6 -40 c7 -53 -8 -36 -30 32 -10 28 -27 64 -38 79
-54 68 -189 141 -358 193 -44 13 -205 30 -230 24 -10 -3 -21 0 -24 6 -7 11
-48 15 -57 6z m-580 -1462 c5 -24 5 -43 1 -43 -14 0 -29 49 -35 118 -10 92 7
121 18 32 4 -36 11 -84 16 -107z m258 -740 c24 -25 41 -48 39 -51 -6 -5 -119
95 -125 110 -7 20 43 -15 86 -59z m1081 -134 c59 -33 125 -97 149 -143 25 -49
13 -157 -26 -235 -39 -76 -51 -76 -17 0 68 151 26 278 -121 361 -29 16 -53 34
-53 39 0 14 12 11 68 -22z m-1378 -9 c0 -5 -15 -13 -32 -18 -21 -5 -34 -16
-36 -28 -5 -26 -22 -43 -22 -21 0 23 -11 21 -43 -8 -34 -32 -34 -80 -1 -189 4
-12 2 -16 -5 -12 -18 12 -13 -4 20 -56 49 -81 27 -65 -27 20 -57 87 -74 129
-74 181 0 66 17 66 22 -1 5 -58 33 -147 43 -137 2 3 -2 27 -10 54 -30 97 -19
148 38 192 32 25 52 33 85 33 23 0 42 -4 42 -10z m-22 -323 c23 -48 36 -85 30
-81 -19 12 -96 188 -103 236 -12 78 8 81 21 3 7 -39 30 -109 52 -158z"/>
</g>
</svg>
